HIERARCHY
ROOT Pelvis
{
	OFFSET 0.000000 0.941512 0.000000
	CHANNELS 6 Xposition Yposition Zposition Zrotation Yrotation Xrotation 
	JOINT Pelvis_L_Hip
	{
		OFFSET 0.000000 0.000000 0.000000
		CHANNELS 3 Zrotation Yrotation Xrotation
		JOINT L_Hip
		{
			OFFSET 0.062321 -0.080322 -0.016990
			CHANNELS 3 Zrotation Yrotation Xrotation
			JOINT L_Knee
			{
				OFFSET 0.093051 -0.381305 -0.029784
				CHANNELS 3 Zrotation Yrotation Xrotation
				JOINT L_Ankle
				{
					OFFSET -0.010371 -0.431000 -0.033614
					CHANNELS 3 Zrotation Yrotation Xrotation
					End Site #name: L_Foot
					{
						OFFSET 0.069299 -0.038670 0.119418
					}
				}
			}
		}
	}
	JOINT Pelvis_R_Hip
	{
		OFFSET 0.000000 0.000000 0.000000
		CHANNELS 3 Zrotation Yrotation Xrotation
		JOINT R_Hip
		{
			OFFSET -0.055334 -0.094904 -0.002373
			CHANNELS 3 Zrotation Yrotation Xrotation
			JOINT R_Knee
			{
				OFFSET -0.064207 -0.384370 -0.019592
				CHANNELS 3 Zrotation Yrotation Xrotation
				JOINT R_Ankle
				{
					OFFSET 0.025418 -0.419734 -0.065953
					CHANNELS 3 Zrotation Yrotation Xrotation
					End Site #name: R_Foot
					{
						OFFSET -0.057233 -0.039888 0.132134
					}
				}
			}
		}
	}
	JOINT Pelvis_Spine1
	{
		OFFSET 0.000000 0.000000 0.000000
		CHANNELS 3 Zrotation Yrotation Xrotation
		JOINT Spine1
		{
			OFFSET -0.005562 0.124093 -0.043360
			CHANNELS 3 Zrotation Yrotation Xrotation
			JOINT Spine2
			{
				OFFSET 0.012244 0.139499 0.029894
				CHANNELS 3 Zrotation Yrotation Xrotation
				JOINT Spine3
				{
					OFFSET -0.002556 0.056561 0.009225
					CHANNELS 3 Zrotation Yrotation Xrotation
					JOINT Spine3_Neck
					{
						OFFSET 0.000000 0.000000 0.000000
						CHANNELS 3 Zrotation Yrotation Xrotation
						JOINT Neck
						{
							OFFSET -0.005205 0.217920 -0.024551
							CHANNELS 3 Zrotation Yrotation Xrotation
							End Site #name: Head
							{
								OFFSET 0.002365 0.091850 0.046637
							}
						}
					}
					JOINT Spine3_L_Collar
					{
						OFFSET 0.000000 0.000000 0.000000
						CHANNELS 3 Zrotation Yrotation Xrotation
						JOINT L_Collar
						{
							OFFSET 0.072225 0.116603 -0.009480
							CHANNELS 3 Zrotation Yrotation Xrotation
							JOINT L_Shoulder
							{
								OFFSET 0.115937 -0.058643 -0.021018
								CHANNELS 3 Zrotation Yrotation Xrotation
								JOINT L_Elbow
								{
									OFFSET 0.021994 -0.254722 -0.024492
									CHANNELS 3 Zrotation Yrotation Xrotation
									End Site #name: L_Wrist
									{
										OFFSET 0.048810 -0.240214 0.103329
									}
								}
							}
						}
					}
					JOINT Spine3_R_Collar
					{
						OFFSET 0.000000 0.000000 0.000000
						CHANNELS 3 Zrotation Yrotation Xrotation
						JOINT R_Collar
						{
							OFFSET -0.073372 0.120704 -0.024611
							CHANNELS 3 Zrotation Yrotation Xrotation
							JOINT R_Shoulder
							{
								OFFSET -0.108089 -0.054969 -0.020504
								CHANNELS 3 Zrotation Yrotation Xrotation
								JOINT R_Elbow
								{
									OFFSET -0.033684 -0.260739 0.009889
									CHANNELS 3 Zrotation Yrotation Xrotation
									End Site #name: R_Wrist
									{
										OFFSET -0.067980 -0.232763 0.118463
									}
								}
							}
						}
					}
				}
			}
		}
	}
}
MOTION
Frames: 8
Frame Time: 0.041667
-0.779751 0.963914 0.804642 -0.220975 11.541539 20.102925 0.000000 0.000000 0.000000 -16.403765 -0.211761 -4.212175 11.310257 1.696315 -28.089688 66.893509 43.970037 150.356788 0.000000 0.000000 0.000000 8.500753 5.372750 -27.122918 -24.480163 -13.679211 -51.526281 -34.724608 -45.836941 135.063205 0.000000 0.000000 0.000000 7.516233 3.860940 -49.424184 -10.051183 2.021550 2.934507 6.950102 2.001657 24.007720 0.000000 0.000000 0.000000 -4.655657 -2.704057 -72.870354 0.000000 0.000000 0.000000 -152.523737 7.718777 -23.035412 86.458503 39.603568 -62.403077 19.808386 8.143140 48.517490 0.000000 0.000000 0.000000 163.287392 10.994304 -31.238631 -42.563951 -34.322398 -102.246670 -26.535357 -12.846708 21.207575 
-0.779004 0.971721 0.763460 2.069441 13.673065 20.310580 0.000000 0.000000 0.000000 -19.268669 -1.743646 -7.755254 11.339636 1.359009 -25.582617 70.976914 42.222945 149.989874 0.000000 0.000000 0.000000 11.267413 4.304823 -20.593861 -30.978836 -19.006233 -55.152073 -25.348774 -45.966373 143.000819 0.000000 0.000000 0.000000 4.168047 2.702932 -50.504094 -10.278949 2.263870 4.509844 9.407439 8.119915 23.916732 0.000000 0.000000 0.000000 -14.257836 -6.648283 -70.651971 0.000000 0.000000 0.000000 -153.796412 38.555580 -49.884974 34.126072 16.777008 -84.320557 25.031796 9.151973 24.652914 0.000000 0.000000 0.000000 173.068782 52.110818 24.127557 -138.727985 48.862808 26.580338 38.479411 -4.611909 37.765442 
-0.776100 0.977876 0.727469 4.099032 15.249361 20.071562 0.000000 0.000000 0.000000 -22.698631 -3.233546 -10.420293 12.539703 1.222882 -22.685787 72.533160 41.170209 149.412492 0.000000 0.000000 0.000000 14.783583 3.137796 -14.758871 -38.299638 -22.091212 -52.868233 -19.287863 -46.788822 150.645144 0.000000 0.000000 0.000000 1.313145 1.673488 -50.631133 -10.595898 2.487598 5.822467 11.285942 13.990003 23.637215 0.000000 0.000000 0.000000 -23.070788 -9.042916 -65.178429 0.000000 0.000000 0.000000 -157.904030 59.947278 -70.792842 18.050759 3.897693 -72.881955 19.692471 8.228762 12.747660 0.000000 0.000000 0.000000 -126.226001 64.752209 125.286987 -9.658712 -4.034161 123.606578 11.192748 9.288807 -7.792694 
-0.770945 0.980769 0.692495 5.846982 16.876582 19.420705 0.000000 0.000000 0.000000 -26.309326 -4.556701 -12.054041 14.210903 1.115091 -20.174752 74.063353 40.368003 148.525928 0.000000 0.000000 0.000000 17.948655 1.905412 -10.255073 -44.411259 -21.226748 -45.638466 -24.352397 -47.352245 160.683682 0.000000 0.000000 0.000000 -1.319702 0.727070 -49.685746 -11.105252 2.708732 6.839378 12.660704 18.939160 23.502171 0.000000 0.000000 0.000000 -31.064787 -9.772551 -58.137668 0.000000 0.000000 0.000000 -165.288512 74.966614 -89.917450 9.696243 -0.836300 -62.919506 15.475038 6.773887 6.382874 0.000000 0.000000 0.000000 -99.352948 53.871226 -176.964815 12.433268 -22.815272 90.797382 1.778922 3.820971 -9.000656 
-0.763527 0.979890 0.657958 7.249748 18.648407 18.794590 0.000000 0.000000 0.000000 -29.578102 -5.927447 -13.319603 15.704007 0.950834 -17.919813 75.287111 39.807969 147.376707 0.000000 0.000000 0.000000 20.367679 1.073028 -7.941840 -47.926414 -15.747957 -34.366855 7.588196 -52.825045 151.912490 0.000000 0.000000 0.000000 -3.989651 -0.175468 -48.410796 -11.395685 2.869672 7.765109 13.833004 22.885336 23.606966 0.000000 0.000000 0.000000 -37.692113 -9.120783 -50.690553 0.000000 0.000000 0.000000 157.719687 85.557429 -135.929132 3.879987 -3.022272 -56.274172 13.088297 5.696840 2.510355 0.000000 0.000000 0.000000 -91.076450 47.496173 -147.801058 24.793316 -23.339343 69.570167 -1.929026 1.632584 -9.372566 
-0.754053 0.975170 0.623584 7.930358 20.763626 18.211678 0.000000 0.000000 0.000000 -32.131064 -7.252290 -14.272496 16.855059 0.782102 -16.394055 77.765669 39.181916 146.157031 0.000000 0.000000 0.000000 22.050413 0.792283 -7.541425 -45.368899 -7.300265 -21.584792 77.903985 -35.767732 113.966333 0.000000 0.000000 0.000000 -6.516482 -1.016050 -46.975632 -10.779548 2.847414 8.853073 14.717530 26.084495 23.520956 0.000000 0.000000 0.000000 -42.584211 -7.478625 -43.298654 0.000000 0.000000 0.000000 49.676621 82.974957 109.172193 0.439738 -3.902503 -52.397121 12.244802 5.203786 0.173831 0.000000 0.000000 0.000000 -84.016718 45.146219 -128.207896 30.027867 -21.596995 59.204394 -4.368972 0.065828 -9.125951 
-0.740670 0.967577 0.589232 8.318564 22.934266 17.679829 0.000000 0.000000 0.000000 -34.482909 -8.503619 -14.874794 17.485960 0.624105 -15.294341 80.784652 38.776415 144.723572 0.000000 0.000000 0.000000 22.275497 0.989915 -8.327564 -36.425303 0.252839 -8.670870 101.347922 -5.588867 104.197472 0.000000 0.000000 0.000000 -8.816666 -1.716694 -45.329683 -9.692355 2.697213 9.951685 15.047251 28.544265 23.304716 0.000000 0.000000 0.000000 -45.645831 -5.233006 -36.365014 0.000000 0.000000 0.000000 34.082090 76.089935 88.510075 -1.592490 -4.282735 -50.312837 11.679938 4.851374 -1.389834 0.000000 0.000000 0.000000 -77.567910 43.552467 -113.494833 33.472332 -20.294788 52.937353 -6.731985 -1.560282 -8.305886 
-0.722558 0.957586 0.554234 8.260456 25.133990 17.447567 0.000000 0.000000 0.000000 -36.472170 -9.660077 -15.256314 17.317389 0.540117 -15.000157 84.361189 38.910848 142.620546 0.000000 0.000000 0.000000 22.050031 1.291002 -9.374993 -25.714523 3.342793 0.801240 101.520996 16.862686 97.177525 0.000000 0.000000 0.000000 -10.283482 -2.074910 -43.304585 -8.897755 2.508274 10.156346 14.943391 30.381724 23.048352 0.000000 0.000000 0.000000 -46.280165 -2.773504 -30.246993 0.000000 0.000000 0.000000 28.622376 69.725009 78.701922 -3.221654 -4.581833 -49.152402 11.905671 4.896941 -2.131348 0.000000 0.000000 0.000000 -72.355069 41.786125 -102.281746 36.737257 -19.431737 48.450441 -8.669641 -2.840223 -7.716645 
